<svg id="_10_" data-name="10%" xmlns="http://www.w3.org/2000/svg" xmlns:xlink="http://www.w3.org/1999/xlink" width="51.678" height="46.798" viewBox="0 0 51.678 46.798">
  <defs>
    <clipPath id="clip-path">
      <rect id="Rectangle_13411" data-name="Rectangle 13411" width="51.678" height="46.798" fill="#c7a386"/>
    </clipPath>
  </defs>
  <g id="Group_71069" data-name="Group 71069" transform="translate(0 0)" clip-path="url(#clip-path)">
    <path id="Path_97659" data-name="Path 97659" d="M23.4,46.8A23.4,23.4,0,1,1,43.465,11.356l.375.623L23.2,23.414,43.573,35.281l-.389.615A23.3,23.3,0,0,1,23.4,46.8M23.4,1.4A21.995,21.995,0,1,0,41.6,35.756L20.361,23.383,41.875,11.462A21.829,21.829,0,0,0,23.4,1.4" transform="translate(0 0)" fill="#c7a386"/>
    <path id="Path_97660" data-name="Path 97660" d="M40.646,33.094,17.929,20.3l22.81-12.64.348.58A23.43,23.43,0,0,1,41,32.519ZM20.808,20.31,40.146,31.2a22.035,22.035,0,0,0,.08-21.654Z" transform="translate(7.242 3.094)" fill="#c7a386"/>
  </g>
</svg>
