<svg id="_3000" data-name="3000" xmlns="http://www.w3.org/2000/svg" xmlns:xlink="http://www.w3.org/1999/xlink" width="52.044" height="52.056" viewBox="0 0 52.044 52.056">
  <defs>
    <clipPath id="clip-path">
      <rect id="Rectangle_13410" data-name="Rectangle 13410" width="52.044" height="52.056" fill="#c7a386"/>
    </clipPath>
  </defs>
  <g id="Group_71067" data-name="Group 71067" transform="translate(0 0)" clip-path="url(#clip-path)">
    <path id="Path_97640" data-name="Path 97640" d="M13.166,38.528a.7.7,0,0,1-.7-.7V26.57a.7.7,0,1,1,1.407,0V37.825a.7.7,0,0,1-.7.7" transform="translate(6.517 13.527)" fill="#c7a386"/>
    <path id="Path_97641" data-name="Path 97641" d="M21.481,38.528a.7.7,0,0,1-.705-.7V26.57a.7.7,0,0,1,1.409,0V37.825a.7.7,0,0,1-.7.7" transform="translate(10.866 13.527)" fill="#c7a386"/>
    <path id="Path_97642" data-name="Path 97642" d="M17.323,40.461a.7.7,0,0,1-.7-.7V22.875a.7.7,0,0,1,1.407,0V39.757a.7.7,0,0,1-.7.7" transform="translate(8.692 11.594)" fill="#c7a386"/>
    <path id="Path_97643" data-name="Path 97643" d="M29.324,12.237a.7.7,0,0,1-.53-.241,6.59,6.59,0,0,0-5.111-2.275H16.644c-3.185,0-3.8.431-5.457,1.584l-.244.169a.7.7,0,1,1-.8-1.156l.242-.168c1.753-1.223,2.635-1.837,6.263-1.837h7.038a8.066,8.066,0,0,1,6.171,2.757.7.7,0,0,1-.067.993.7.7,0,0,1-.463.174" transform="translate(5.146 4.347)" fill="#c7a386"/>
    <path id="Path_97644" data-name="Path 97644" d="M18.772,11.256c-2.945,0-4.924-2.262-4.924-5.629S15.826,0,18.772,0,23.7,2.262,23.7,5.627s-1.978,5.629-4.924,5.629m0-9.849c-2.6,0-3.518,2.274-3.518,4.22s.921,4.222,3.518,4.222,3.517-2.274,3.517-4.222-.92-4.22-3.517-4.22" transform="translate(7.242 -0.001)" fill="#c7a386"/>
    <path id="Path_97645" data-name="Path 97645" d="M17.557,32.431h-.7a.7.7,0,0,1,0-1.407V18.148a6.187,6.187,0,0,0-6.24-6.118H6.21a6.358,6.358,0,0,0-1.3.133.7.7,0,0,1-.285-1.378,7.846,7.846,0,0,1,1.582-.161h4.4a7.6,7.6,0,0,1,7.647,7.525V31.727a.7.7,0,0,1-.7.7" transform="translate(2.127 5.555)" fill="#c7a386"/>
    <path id="Path_97646" data-name="Path 97646" d="M1.86,30.331h-.7a.7.7,0,0,1-.7-.7V15.345a.7.7,0,1,1,1.407,0V28.924a.7.7,0,1,1,0,1.407" transform="translate(0.237 7.656)" fill="#c7a386"/>
    <path id="Path_97647" data-name="Path 97647" d="M3.707,43.359a.7.7,0,0,1-.7-.7V18.035a.7.7,0,1,1,0-1.407h.7a.7.7,0,0,1,.7.7V42.656a.7.7,0,0,1-.7.7" transform="translate(1.203 8.695)" fill="#c7a386"/>
    <path id="Path_97648" data-name="Path 97648" d="M7.161,39.977a.7.7,0,0,1-.7-.7V23.8a.7.7,0,0,1,1.407,0V39.274a.7.7,0,0,1-.7.7" transform="translate(3.377 12.078)" fill="#c7a386"/>
    <path id="Path_97649" data-name="Path 97649" d="M8.368,13.082c-2.525,0-4.22-1.98-4.22-4.924s1.7-4.925,4.22-4.925,4.22,1.98,4.22,4.925-1.7,4.924-4.22,4.924m0-8.442c-2.074,0-2.814,1.817-2.814,3.518s.74,3.517,2.814,3.517,2.814-1.817,2.814-3.517S10.443,4.64,8.368,4.64" transform="translate(2.169 1.69)" fill="#c7a386"/>
    <path id="Path_97650" data-name="Path 97650" d="M10.857,43.359a.7.7,0,0,1-.7-.7V17.332a.7.7,0,0,1,.7-.7h.7a.7.7,0,1,1,0,1.407V42.656a.7.7,0,0,1-.7.7" transform="translate(5.31 8.695)" fill="#c7a386"/>
    <path id="Path_97651" data-name="Path 97651" d="M2.615,16.338a1.956,1.956,0,0,1-1.491-.685l-.655-.769a1.955,1.955,0,0,1,.219-2.76l1.3-1.11a1.957,1.957,0,0,1,2.76.218L5.405,12a1.959,1.959,0,0,1-.219,2.76l-1.3,1.11a1.951,1.951,0,0,1-1.269.468m.646-4.386a.548.548,0,0,0-.356.131L1.6,13.195a.552.552,0,0,0-.062.777l.656.768a.551.551,0,0,0,.775.062l1.3-1.112a.55.55,0,0,0,.061-.777l-.655-.768a.544.544,0,0,0-.375-.192l-.044,0m-.813-.4h0Z" transform="translate(0 5.514)" fill="#c7a386"/>
    <path id="Path_97652" data-name="Path 97652" d="M22.192,32.431h-.7a.7.7,0,0,1-.7-.7V18.148a7.6,7.6,0,0,1,7.647-7.525h4.4a7.833,7.833,0,0,1,1.488.143.7.7,0,1,1-.267,1.381,6.422,6.422,0,0,0-1.221-.117h-4.4a6.187,6.187,0,0,0-6.24,6.118V31.023a.7.7,0,0,1,0,1.407" transform="translate(10.87 5.555)" fill="#c7a386"/>
    <path id="Path_97653" data-name="Path 97653" d="M33.74,30.331h-.7a.7.7,0,0,1,0-1.407V15.345a.7.7,0,0,1,1.407,0V29.627a.7.7,0,0,1-.7.7" transform="translate(16.91 7.656)" fill="#c7a386"/>
    <path id="Path_97654" data-name="Path 97654" d="M31.189,43.359a.7.7,0,0,1-.7-.7V17.332a.7.7,0,0,1,.7-.7h.7a.7.7,0,1,1,0,1.407V42.656a.7.7,0,0,1-.7.7" transform="translate(15.943 8.695)" fill="#c7a386"/>
    <path id="Path_97655" data-name="Path 97655" d="M27.494,39.977a.7.7,0,0,1-.7-.7V23.8a.7.7,0,0,1,1.407,0V39.274a.7.7,0,0,1-.7.7" transform="translate(14.011 12.078)" fill="#c7a386"/>
    <path id="Path_97656" data-name="Path 97656" d="M28.7,13.082c-2.525,0-4.22-1.98-4.22-4.924s1.7-4.925,4.22-4.925,4.22,1.98,4.22,4.925-1.7,4.924-4.22,4.924m0-8.442c-2.074,0-2.814,1.817-2.814,3.518s.74,3.517,2.814,3.517,2.814-1.817,2.814-3.517S30.776,4.64,28.7,4.64" transform="translate(12.803 1.69)" fill="#c7a386"/>
    <path id="Path_97657" data-name="Path 97657" d="M24.04,43.359a.7.7,0,0,1-.7-.7V18.035a.7.7,0,1,1,0-1.407h.7a.7.7,0,0,1,.7.7V42.656a.7.7,0,0,1-.7.7" transform="translate(11.837 8.695)" fill="#c7a386"/>
    <path id="Path_97658" data-name="Path 97658" d="M33.572,16.34a1.939,1.939,0,0,1-1.267-.468L31,14.761A1.961,1.961,0,0,1,30.782,12l.656-.769a1.957,1.957,0,0,1,2.76-.218l1.3,1.112a1.957,1.957,0,0,1,.219,2.758l-.655.769a1.946,1.946,0,0,1-1.336.681c-.052,0-.105.006-.157.006m-.644-4.388-.044,0a.55.55,0,0,0-.376.192l-.655.768a.552.552,0,0,0,.062.777l1.3,1.112a.552.552,0,0,0,.777-.062l.655-.768a.553.553,0,0,0-.061-.777l-1.3-1.11a.541.541,0,0,0-.356-.132" transform="translate(15.855 5.514)" fill="#c7a386"/>
  </g>
</svg>
