<svg id="_6mn" data-name="6mn" xmlns="http://www.w3.org/2000/svg" xmlns:xlink="http://www.w3.org/1999/xlink" width="62" height="37.049" viewBox="0 0 62 37.049">
  <defs>
    <clipPath id="clip-path">
      <rect id="Rectangle_13412" data-name="Rectangle 13412" width="62" height="37.049" fill="#c7a386"/>
    </clipPath>
  </defs>
  <path id="Path_97661" data-name="Path 97661" d="M31.878,0,1.047,17.918l1.053.607,5.226-3.037-.527-.3,1.046-.607.527.3L13.6,11.843l-.527-.3,1.045-.606.527.3L19.867,8.2l-.526-.3,1.045-.608.527.3,5.226-3.037-.527-.3,1.045-.606.526.3,4.7-2.734L31.36.91,32.4.3Z" transform="translate(-0.001 0)" fill="#c7a386"/>
  <path id="Path_97662" data-name="Path 97662" d="M0,18.545,32.087,37.071l.521-.3-1.052-.607.521-.3-4.732-2.733-.661.384L25.632,32.9l.661-.384-5.261-3.037-.66.385-1.053-.608.66-.384-5.259-3.036-.66.384-1.053-.607.661-.384L8.409,22.191l-.66.385L6.7,21.967l.661-.384L2.1,18.547l-1.053-.608h0Z" transform="translate(0 -0.021)" fill="#c7a386"/>
  <path id="Path_97663" data-name="Path 97663" d="M9.846,21.364l-1.053-.607-1.428.83-.661.385,1.053.607.661-.385Z" transform="translate(-0.008 -0.025)" fill="#c7a386"/>
  <path id="Path_97664" data-name="Path 97664" d="M9.955,15.809,8.377,14.9l-.526-.3L6.805,15.2l.527.3,1.577.911Z" transform="translate(-0.008 -0.017)" fill="#c7a386"/>
  <path id="Path_97665" data-name="Path 97665" d="M16.233,12.161l-1.578-.911-.526-.3-1.045.607.527.3,1.578.912Z" transform="translate(-0.016 -0.013)" fill="#c7a386"/>
  <path id="Path_97666" data-name="Path 97666" d="M22.512,8.512,20.934,7.6l-.526-.3L19.362,7.9l.527.3,1.577.911Z" transform="translate(-0.023 -0.009)" fill="#c7a386"/>
  <path id="Path_97667" data-name="Path 97667" d="M28.79,4.863l-1.578-.911-.526-.3-1.045.607.527.3,1.578.911Z" transform="translate(-0.031 -0.004)" fill="#c7a386"/>
  <path id="Path_97668" data-name="Path 97668" d="M35.6,2.126,32.442.3h0L31.4.91l.527.3,2.63,1.518Z" transform="translate(-0.038 0)" fill="#c7a386"/>
  <path id="Path_97669" data-name="Path 97669" d="M16.166,25.013l-1.053-.607-1.428.83-.661.385,1.053.607.661-.385Z" transform="translate(-0.016 -0.029)" fill="#c7a386"/>
  <path id="Path_97670" data-name="Path 97670" d="M22.485,28.661l-1.053-.607L20,28.883l-.661.385,1.053.607.66-.385Z" transform="translate(-0.023 -0.034)" fill="#c7a386"/>
  <path id="Path_97671" data-name="Path 97671" d="M28.805,32.31,27.753,31.7l-1.428.83-.661.385,1.053.607.661-.385Z" transform="translate(-0.031 -0.038)" fill="#c7a386"/>
  <path id="Path_97672" data-name="Path 97672" d="M32.117,35.876l-.521.3,1.052.607,3.135-1.822-1.053-.607Z" transform="translate(-0.038 -0.041)" fill="#c7a386"/>
  <g id="Group_71072" data-name="Group 71072" transform="translate(0 0)">
    <g id="Group_71071" data-name="Group 71071" clip-path="url(#clip-path)">
      <path id="Path_97673" data-name="Path 97673" d="M38.5,11c-1.174,0-2.333-.055-3.468-.164A31.061,31.061,0,0,1,27.609,9.23l-1.014-.363,6.617-3.844A7.39,7.39,0,0,1,40,4.825l8.515,4.914-1.246.281A40.142,40.142,0,0,1,38.5,11m-9.52-2.367a30.877,30.877,0,0,0,6.148,1.209,37.85,37.85,0,0,0,10.64-.533L39.5,5.689a6.505,6.505,0,0,0-5.785.2Z" transform="translate(-0.032 -0.005)" fill="#c7a386"/>
      <path id="Path_97674" data-name="Path 97674" d="M47.7,28.592l-.267-.212a22.5,22.5,0,0,1-7.557-10.07,15.756,15.756,0,0,1-.852-4.925l0-.488.488-.016a48.208,48.208,0,0,0,11.187-1.7l.2-.056,9.748,5.628a2.444,2.444,0,0,1,1.4,2.076,2.974,2.974,0,0,1-1.717,2.429ZM40.042,13.86a14.786,14.786,0,0,0,.784,4.128,21.337,21.337,0,0,0,6.969,9.4l12.035-7a2.042,2.042,0,0,0,1.219-1.563,1.507,1.507,0,0,0-.9-1.215l-9.386-5.417A49.259,49.259,0,0,1,40.042,13.86" transform="translate(-0.047 -0.013)" fill="#c7a386"/>
      <path id="Path_97675" data-name="Path 97675" d="M18.912,23.872l-5.37-3.1a2.445,2.445,0,0,1-1.4-2.076,2.978,2.978,0,0,1,1.719-2.429l10.077-5.856.226.089a34.655,34.655,0,0,0,9.428,2.2l1.39.119,0,.462a17.173,17.173,0,0,0,2.006,8.1l.385.745-.839-.017A74.728,74.728,0,0,0,19.1,23.83Zm5.112-12.356-9.658,5.613a2.049,2.049,0,0,0-1.222,1.565,1.5,1.5,0,0,0,.9,1.211l5.035,2.909A76.486,76.486,0,0,1,35.733,21.1a18.067,18.067,0,0,1-1.75-7.363L33.5,13.7a35.806,35.806,0,0,1-9.48-2.18" transform="translate(-0.015 -0.012)" fill="#c7a386"/>
      <path id="Path_97676" data-name="Path 97676" d="M37.28,33.434A6.266,6.266,0,0,1,34.19,32.7L21.361,25.3l1.346-.241a66.028,66.028,0,0,1,15.762-.928l.231.016.137.186a28.082,28.082,0,0,0,5.457,5.451l.59.453L40.978,32.5a7.521,7.521,0,0,1-3.7.93M24.249,25.809,34.69,31.838a6.51,6.51,0,0,0,5.787-.2L43.1,30.114a28.734,28.734,0,0,1-4.929-5,64.665,64.665,0,0,0-13.926.7" transform="translate(-0.026 -0.029)" fill="#c7a386"/>
    </g>
  </g>
</svg>
